<svg id="Layer_1" data-name="Layer 1" xmlns="http://www.w3.org/2000/svg" viewBox="0 0 1920 518"><defs><style>.cls-1{fill:#206e90;}</style></defs><circle id="Ellipse_119-2" data-name="Ellipse 119-2" class="cls-1" cx="26.64" cy="24.18" r="10.08"/><circle id="Ellipse_127-2" data-name="Ellipse 127-2" class="cls-1" cx="64.24" cy="24.18" r="10.08"/><circle id="Ellipse_134-2" data-name="Ellipse 134-2" class="cls-1" cx="98.4" cy="24.53" r="8.92"/><circle id="Ellipse_135-2" data-name="Ellipse 135-2" class="cls-1" cx="131.34" cy="24.67" r="8.03"/><circle id="Ellipse_136-2" data-name="Ellipse 136-2" class="cls-1" cx="162.63" cy="24.96" r="6.98"/><circle id="Ellipse_137-2" data-name="Ellipse 137-2" class="cls-1" cx="190.52" cy="24.89" r="5.55"/><circle id="Ellipse_138-2" data-name="Ellipse 138-2" class="cls-1" cx="216.51" cy="24.46" r="4.48"/><circle id="Ellipse_139-2" data-name="Ellipse 139-2" class="cls-1" cx="240.51" cy="24.52" r="3.66"/><circle id="Ellipse_119-3" data-name="Ellipse 119-3" class="cls-1" cx="1893.36" cy="24.18" r="10.08"/><circle id="Ellipse_127-3" data-name="Ellipse 127-3" class="cls-1" cx="1855.77" cy="24.18" r="10.08"/><circle id="Ellipse_134-3" data-name="Ellipse 134-3" class="cls-1" cx="1821.6" cy="24.53" r="8.92"/><circle id="Ellipse_135-3" data-name="Ellipse 135-3" class="cls-1" cx="1788.66" cy="24.67" r="8.03"/><circle id="Ellipse_136-3" data-name="Ellipse 136-3" class="cls-1" cx="1757.37" cy="24.96" r="6.98"/><circle id="Ellipse_137-3" data-name="Ellipse 137-3" class="cls-1" cx="1729.48" cy="24.89" r="5.55"/><circle id="Ellipse_138-3" data-name="Ellipse 138-3" class="cls-1" cx="1703.49" cy="24.46" r="4.48"/><circle id="Ellipse_139-3" data-name="Ellipse 139-3" class="cls-1" cx="1679.49" cy="24.52" r="3.66"/><circle id="Ellipse_120-2" data-name="Ellipse 120-2" class="cls-1" cx="26.98" cy="66.17" r="8.92"/><circle id="Ellipse_128-2" data-name="Ellipse 128-2" class="cls-1" cx="64.58" cy="66.17" r="8.92"/><circle id="Ellipse_140-2" data-name="Ellipse 140-2" class="cls-1" cx="98.4" cy="66.18" r="8.92"/><circle id="Ellipse_141-2" data-name="Ellipse 141-2" class="cls-1" cx="131.34" cy="66.32" r="8.03"/><circle id="Ellipse_142-2" data-name="Ellipse 142-2" class="cls-1" cx="162.63" cy="66.62" r="6.98"/><circle id="Ellipse_143-2" data-name="Ellipse 143-2" class="cls-1" cx="190.52" cy="66.54" r="5.55"/><circle id="Ellipse_144-2" data-name="Ellipse 144-2" class="cls-1" cx="216.51" cy="66.11" r="4.48"/><circle id="Ellipse_145-2" data-name="Ellipse 145-2" class="cls-1" cx="240.51" cy="66.17" r="3.66"/><circle id="Ellipse_120-3" data-name="Ellipse 120-3" class="cls-1" cx="1893.02" cy="66.17" r="8.92"/><circle id="Ellipse_128-3" data-name="Ellipse 128-3" class="cls-1" cx="1855.42" cy="66.17" r="8.92"/><circle id="Ellipse_140-3" data-name="Ellipse 140-3" class="cls-1" cx="1821.6" cy="66.18" r="8.92"/><circle id="Ellipse_141-3" data-name="Ellipse 141-3" class="cls-1" cx="1788.66" cy="66.32" r="8.03"/><circle id="Ellipse_142-3" data-name="Ellipse 142-3" class="cls-1" cx="1757.37" cy="66.62" r="6.98"/><circle id="Ellipse_143-3" data-name="Ellipse 143-3" class="cls-1" cx="1729.48" cy="66.54" r="5.55"/><circle id="Ellipse_144-3" data-name="Ellipse 144-3" class="cls-1" cx="1703.49" cy="66.11" r="4.48"/><circle id="Ellipse_145-3" data-name="Ellipse 145-3" class="cls-1" cx="1679.49" cy="66.17" r="3.66"/><circle id="Ellipse_125-2" data-name="Ellipse 125-2" class="cls-1" cx="26.99" cy="243.84" r="3.66"/><circle id="Ellipse_133-2" data-name="Ellipse 133-2" class="cls-1" cx="64.59" cy="243.84" r="3.66"/><circle id="Ellipse_150-2" data-name="Ellipse 150-2" class="cls-1" cx="98.42" cy="243.84" r="3.66"/><circle id="Ellipse_125-3" data-name="Ellipse 125-3" class="cls-1" cx="1893.01" cy="243.84" r="3.66"/><circle id="Ellipse_133-3" data-name="Ellipse 133-3" class="cls-1" cx="1855.41" cy="243.84" r="3.66"/><circle id="Ellipse_150-3" data-name="Ellipse 150-3" class="cls-1" cx="1821.58" cy="243.84" r="3.66"/><circle id="Ellipse_123-2" data-name="Ellipse 123-2" class="cls-1" cx="26.62" cy="179.67" r="5.55"/><circle id="Ellipse_131-2" data-name="Ellipse 131-2" class="cls-1" cx="64.22" cy="179.67" r="5.55"/><circle id="Ellipse_148-2" data-name="Ellipse 148-2" class="cls-1" cx="98.05" cy="179.67" r="5.55"/><circle id="Ellipse_153-2" data-name="Ellipse 153-2" class="cls-1" cx="131.13" cy="179.67" r="5.55"/><circle id="Ellipse_123-3" data-name="Ellipse 123-3" class="cls-1" cx="1893.38" cy="179.67" r="5.55"/><circle id="Ellipse_131-3" data-name="Ellipse 131-3" class="cls-1" cx="1855.78" cy="179.67" r="5.55"/><circle id="Ellipse_148-3" data-name="Ellipse 148-3" class="cls-1" cx="1821.95" cy="179.67" r="5.55"/><circle id="Ellipse_153-3" data-name="Ellipse 153-3" class="cls-1" cx="1788.87" cy="179.67" r="5.55"/><circle id="Ellipse_124-2" data-name="Ellipse 124-2" class="cls-1" cx="27.05" cy="212.7" r="4.48"/><circle id="Ellipse_132-2" data-name="Ellipse 132-2" class="cls-1" cx="64.65" cy="212.7" r="4.48"/><circle id="Ellipse_149-2" data-name="Ellipse 149-2" class="cls-1" cx="98.48" cy="212.7" r="4.48"/><circle id="Ellipse_158-2" data-name="Ellipse 158-2" class="cls-1" cx="131.5" cy="212.64" r="3.66"/><circle id="Ellipse_124-3" data-name="Ellipse 124-3" class="cls-1" cx="1892.95" cy="212.7" r="4.48"/><circle id="Ellipse_132-3" data-name="Ellipse 132-3" class="cls-1" cx="1855.35" cy="212.7" r="4.48"/><circle id="Ellipse_149-3" data-name="Ellipse 149-3" class="cls-1" cx="1821.52" cy="212.7" r="4.48"/><circle id="Ellipse_158-3" data-name="Ellipse 158-3" class="cls-1" cx="1788.5" cy="212.64" r="3.66"/><circle id="Ellipse_121-2" data-name="Ellipse 121-2" class="cls-1" cx="26.84" cy="106.13" r="8.03"/><circle id="Ellipse_129-2" data-name="Ellipse 129-2" class="cls-1" cx="64.44" cy="106.13" r="8.03"/><circle id="Ellipse_146-2" data-name="Ellipse 146-2" class="cls-1" cx="98.27" cy="106.13" r="8.03"/><circle id="Ellipse_151-2" data-name="Ellipse 151-2" class="cls-1" cx="131.35" cy="106.13" r="8.03"/><circle id="Ellipse_156-2" data-name="Ellipse 156-2" class="cls-1" cx="162.95" cy="106.28" r="6.98"/><circle id="Ellipse_157-2" data-name="Ellipse 157-2" class="cls-1" cx="190.84" cy="106.2" r="5.55"/><circle id="Ellipse_159" data-name="Ellipse 159" class="cls-1" cx="216.46" cy="106.28" r="3.66"/><circle id="Ellipse_121-3" data-name="Ellipse 121-3" class="cls-1" cx="1893.16" cy="106.13" r="8.03"/><circle id="Ellipse_129-3" data-name="Ellipse 129-3" class="cls-1" cx="1855.56" cy="106.13" r="8.03"/><circle id="Ellipse_146-3" data-name="Ellipse 146-3" class="cls-1" cx="1821.73" cy="106.13" r="8.03"/><circle id="Ellipse_151-3" data-name="Ellipse 151-3" class="cls-1" cx="1788.65" cy="106.13" r="8.03"/><circle id="Ellipse_156-3" data-name="Ellipse 156-3" class="cls-1" cx="1757.05" cy="106.28" r="6.98"/><circle id="Ellipse_157-3" data-name="Ellipse 157-3" class="cls-1" cx="1729.16" cy="106.2" r="5.55"/><circle id="Ellipse_159-2" data-name="Ellipse 159-2" class="cls-1" cx="1703.54" cy="106.28" r="3.66"/><circle id="Ellipse_122-2" data-name="Ellipse 122-2" class="cls-1" cx="26.55" cy="144.14" r="6.98"/><circle id="Ellipse_130-2" data-name="Ellipse 130-2" class="cls-1" cx="64.14" cy="144.14" r="6.98"/><circle id="Ellipse_147-2" data-name="Ellipse 147-2" class="cls-1" cx="97.98" cy="144.14" r="6.98"/><circle id="Ellipse_152-2" data-name="Ellipse 152-2" class="cls-1" cx="131.06" cy="144.14" r="6.98"/><circle id="Ellipse_160-2" data-name="Ellipse 160-2" class="cls-1" cx="163.02" cy="144.51" r="5.55"/><circle id="Ellipse_122-3" data-name="Ellipse 122-3" class="cls-1" cx="1893.45" cy="144.14" r="6.98"/><circle id="Ellipse_130-3" data-name="Ellipse 130-3" class="cls-1" cx="1855.86" cy="144.14" r="6.98"/><circle id="Ellipse_147-3" data-name="Ellipse 147-3" class="cls-1" cx="1822.02" cy="144.14" r="6.98"/><circle id="Ellipse_152-3" data-name="Ellipse 152-3" class="cls-1" cx="1788.94" cy="144.14" r="6.98"/><circle id="Ellipse_160-3" data-name="Ellipse 160-3" class="cls-1" cx="1756.98" cy="144.51" r="5.55"/><circle id="Ellipse_119" data-name="Ellipse 119" class="cls-1" cx="26.64" cy="493.82" r="10.08"/><circle id="Ellipse_127" data-name="Ellipse 127" class="cls-1" cx="64.24" cy="493.82" r="10.08"/><circle id="Ellipse_134" data-name="Ellipse 134" class="cls-1" cx="98.4" cy="493.47" r="8.92"/><circle id="Ellipse_135" data-name="Ellipse 135" class="cls-1" cx="131.34" cy="493.33" r="8.03"/><circle id="Ellipse_136" data-name="Ellipse 136" class="cls-1" cx="162.63" cy="493.04" r="6.98"/><circle id="Ellipse_137" data-name="Ellipse 137" class="cls-1" cx="190.52" cy="493.11" r="5.55"/><circle id="Ellipse_138" data-name="Ellipse 138" class="cls-1" cx="216.51" cy="493.54" r="4.48"/><circle id="Ellipse_139" data-name="Ellipse 139" class="cls-1" cx="240.51" cy="493.48" r="3.66"/><circle id="Ellipse_119-4" data-name="Ellipse 119-4" class="cls-1" cx="1893.36" cy="493.82" r="10.08"/><circle id="Ellipse_127-4" data-name="Ellipse 127-4" class="cls-1" cx="1855.77" cy="493.82" r="10.08"/><circle id="Ellipse_134-4" data-name="Ellipse 134-4" class="cls-1" cx="1821.6" cy="493.47" r="8.92"/><circle id="Ellipse_135-4" data-name="Ellipse 135-4" class="cls-1" cx="1788.66" cy="493.33" r="8.03"/><circle id="Ellipse_136-4" data-name="Ellipse 136-4" class="cls-1" cx="1757.37" cy="493.04" r="6.98"/><circle id="Ellipse_137-4" data-name="Ellipse 137-4" class="cls-1" cx="1729.48" cy="493.11" r="5.55"/><circle id="Ellipse_138-4" data-name="Ellipse 138-4" class="cls-1" cx="1703.49" cy="493.54" r="4.48"/><circle id="Ellipse_139-4" data-name="Ellipse 139-4" class="cls-1" cx="1679.49" cy="493.48" r="3.66"/><circle id="Ellipse_120" data-name="Ellipse 120" class="cls-1" cx="26.98" cy="451.83" r="8.92"/><circle id="Ellipse_128" data-name="Ellipse 128" class="cls-1" cx="64.58" cy="451.83" r="8.92"/><circle id="Ellipse_140" data-name="Ellipse 140" class="cls-1" cx="98.4" cy="451.82" r="8.92"/><circle id="Ellipse_141" data-name="Ellipse 141" class="cls-1" cx="131.34" cy="451.68" r="8.03"/><circle id="Ellipse_142" data-name="Ellipse 142" class="cls-1" cx="162.63" cy="451.39" r="6.98"/><circle id="Ellipse_143" data-name="Ellipse 143" class="cls-1" cx="190.52" cy="451.46" r="5.55"/><circle id="Ellipse_144" data-name="Ellipse 144" class="cls-1" cx="216.51" cy="451.89" r="4.48"/><circle id="Ellipse_145" data-name="Ellipse 145" class="cls-1" cx="240.51" cy="451.83" r="3.66"/><circle id="Ellipse_120-4" data-name="Ellipse 120-4" class="cls-1" cx="1893.02" cy="451.83" r="8.92"/><circle id="Ellipse_128-4" data-name="Ellipse 128-4" class="cls-1" cx="1855.42" cy="451.83" r="8.92"/><circle id="Ellipse_140-4" data-name="Ellipse 140-4" class="cls-1" cx="1821.6" cy="451.82" r="8.92"/><circle id="Ellipse_141-4" data-name="Ellipse 141-4" class="cls-1" cx="1788.66" cy="451.68" r="8.03"/><circle id="Ellipse_142-4" data-name="Ellipse 142-4" class="cls-1" cx="1757.37" cy="451.39" r="6.98"/><circle id="Ellipse_143-4" data-name="Ellipse 143-4" class="cls-1" cx="1729.48" cy="451.46" r="5.55"/><circle id="Ellipse_144-4" data-name="Ellipse 144-4" class="cls-1" cx="1703.49" cy="451.89" r="4.48"/><circle id="Ellipse_145-4" data-name="Ellipse 145-4" class="cls-1" cx="1679.49" cy="451.83" r="3.66"/><circle id="Ellipse_125" data-name="Ellipse 125" class="cls-1" cx="26.99" cy="274.16" r="3.66"/><circle id="Ellipse_133" data-name="Ellipse 133" class="cls-1" cx="64.59" cy="274.16" r="3.66"/><circle id="Ellipse_150" data-name="Ellipse 150" class="cls-1" cx="98.42" cy="274.16" r="3.66"/><circle id="Ellipse_125-4" data-name="Ellipse 125-4" class="cls-1" cx="1893.01" cy="274.16" r="3.66"/><circle id="Ellipse_133-4" data-name="Ellipse 133-4" class="cls-1" cx="1855.41" cy="274.16" r="3.66"/><circle id="Ellipse_150-4" data-name="Ellipse 150-4" class="cls-1" cx="1821.58" cy="274.16" r="3.66"/><circle id="Ellipse_123" data-name="Ellipse 123" class="cls-1" cx="26.62" cy="338.33" r="5.55"/><circle id="Ellipse_131" data-name="Ellipse 131" class="cls-1" cx="64.22" cy="338.33" r="5.55"/><circle id="Ellipse_148" data-name="Ellipse 148" class="cls-1" cx="98.05" cy="338.33" r="5.55"/><circle id="Ellipse_153" data-name="Ellipse 153" class="cls-1" cx="131.13" cy="338.33" r="5.55"/><circle id="Ellipse_123-4" data-name="Ellipse 123-4" class="cls-1" cx="1893.38" cy="338.33" r="5.55"/><circle id="Ellipse_131-4" data-name="Ellipse 131-4" class="cls-1" cx="1855.78" cy="338.33" r="5.55"/><circle id="Ellipse_148-4" data-name="Ellipse 148-4" class="cls-1" cx="1821.95" cy="338.33" r="5.55"/><circle id="Ellipse_153-4" data-name="Ellipse 153-4" class="cls-1" cx="1788.87" cy="338.33" r="5.55"/><circle id="Ellipse_124" data-name="Ellipse 124" class="cls-1" cx="27.05" cy="305.3" r="4.48"/><circle id="Ellipse_132" data-name="Ellipse 132" class="cls-1" cx="64.65" cy="305.3" r="4.48"/><circle id="Ellipse_149" data-name="Ellipse 149" class="cls-1" cx="98.48" cy="305.3" r="4.48"/><circle id="Ellipse_158" data-name="Ellipse 158" class="cls-1" cx="131.5" cy="305.36" r="3.66"/><circle id="Ellipse_124-4" data-name="Ellipse 124-4" class="cls-1" cx="1892.95" cy="305.3" r="4.48"/><circle id="Ellipse_132-4" data-name="Ellipse 132-4" class="cls-1" cx="1855.35" cy="305.3" r="4.48"/><circle id="Ellipse_149-4" data-name="Ellipse 149-4" class="cls-1" cx="1821.52" cy="305.3" r="4.48"/><circle id="Ellipse_158-4" data-name="Ellipse 158-4" class="cls-1" cx="1788.5" cy="305.36" r="3.66"/><circle id="Ellipse_121" data-name="Ellipse 121" class="cls-1" cx="26.84" cy="411.87" r="8.03"/><circle id="Ellipse_129" data-name="Ellipse 129" class="cls-1" cx="64.44" cy="411.87" r="8.03"/><circle id="Ellipse_146" data-name="Ellipse 146" class="cls-1" cx="98.27" cy="411.87" r="8.03"/><circle id="Ellipse_151" data-name="Ellipse 151" class="cls-1" cx="131.35" cy="411.87" r="8.03"/><circle id="Ellipse_156" data-name="Ellipse 156" class="cls-1" cx="162.95" cy="411.72" r="6.98"/><circle id="Ellipse_157" data-name="Ellipse 157" class="cls-1" cx="190.84" cy="411.8" r="5.55"/><circle id="Ellipse_121-4" data-name="Ellipse 121-4" class="cls-1" cx="1893.16" cy="411.87" r="8.03"/><circle id="Ellipse_129-4" data-name="Ellipse 129-4" class="cls-1" cx="1855.56" cy="411.87" r="8.03"/><circle id="Ellipse_146-4" data-name="Ellipse 146-4" class="cls-1" cx="1821.73" cy="411.87" r="8.03"/><circle id="Ellipse_151-4" data-name="Ellipse 151-4" class="cls-1" cx="1788.65" cy="411.87" r="8.03"/><circle id="Ellipse_156-4" data-name="Ellipse 156-4" class="cls-1" cx="1757.05" cy="411.72" r="6.98"/><circle id="Ellipse_157-4" data-name="Ellipse 157-4" class="cls-1" cx="1729.16" cy="411.8" r="5.55"/><circle id="Ellipse_159-3" data-name="Ellipse 159-3" class="cls-1" cx="1703.54" cy="411.72" r="3.66"/><circle id="Ellipse_122" data-name="Ellipse 122" class="cls-1" cx="26.55" cy="373.86" r="6.98"/><circle id="Ellipse_130" data-name="Ellipse 130" class="cls-1" cx="64.14" cy="373.86" r="6.98"/><circle id="Ellipse_147" data-name="Ellipse 147" class="cls-1" cx="97.98" cy="373.86" r="6.98"/><circle id="Ellipse_152" data-name="Ellipse 152" class="cls-1" cx="131.06" cy="373.86" r="6.98"/><circle id="Ellipse_160" data-name="Ellipse 160" class="cls-1" cx="163.02" cy="373.5" r="5.55"/><circle id="Ellipse_122-4" data-name="Ellipse 122-4" class="cls-1" cx="1893.45" cy="373.86" r="6.98"/><circle id="Ellipse_130-4" data-name="Ellipse 130-4" class="cls-1" cx="1855.86" cy="373.86" r="6.98"/><circle id="Ellipse_147-4" data-name="Ellipse 147-4" class="cls-1" cx="1822.02" cy="373.86" r="6.98"/><circle id="Ellipse_152-4" data-name="Ellipse 152-4" class="cls-1" cx="1788.94" cy="373.86" r="6.98"/><circle id="Ellipse_160-4" data-name="Ellipse 160-4" class="cls-1" cx="1756.98" cy="373.5" r="5.55"/></svg>